<svg width="47.222px" height="38.098px" viewBox="-3 -3 48.5 48.5" xmlns="http://www.w3.org/2000/svg" xmlns:xlink="http://www.w3.org/1999/xlink">
   
    <style>
    	.svg-products {
    		fill: #faee41;
    	}
        .icon-shadow {
            fill: #999;
        }
    </style>
    
    <use xlink:href="#icon-path1" class="icon-shadow" transform="translate(2, 2)" />
    <use xlink:href="#icon-path2" class="icon-shadow" transform="translate(2, 2)" />

    <g class="svg-products">
    	<path id="icon-path1" d="M47.191 21.338c-0.121-2.959-1.744-5.516-3.049-7.57c-0.465-0.73-0.904-1.422-1.191-2.007 c-0.16-0.633-0.43-2.208-0.035-3.228c0.039-0.135 0.355-1.354-0.515-2.447c-1.129-1.658-1.765-3.036-1.447-4.777 c0.056-0.306-0.028-0.624-0.229-0.862C40.359 0 40.3 0 37 0c-1.77 0-4.487 0.028-4.896 0.1 c-0.553 0.062-0.96 0.545-0.93 1.1l0.12 2.174c-0.513 0.245-1.183 0.664-1.833 1.366c-0.061 0.064-0.112 0.137-0.154 0.2 c-0.266 0.492-0.254 1.4 0 2.576c0.013 0.325-0.003 2.197-1.755 3.885c-0.133 0.134-3.221 3.364-2.58 10.9 c0.012 0.4 0.3 9.3 0.7 13.133c0.164 0.8 0.9 2.1 2.5 2.354c0.142 0 3.5 0.3 8.2 0.295c0 0 0 0 0 0 c2.769 0 5.417-0.1 7.922-0.3c0.517-0.067 2.208-0.625 2.325-4.989c0.038-1.384 0.127-2.806 0.214-4.181 C47.135 26.2 47.3 23.8 47.2 21.338z M44.892 28.496c-0.087 1.394-0.178 2.835-0.216 4.3 c-0.058 2.113-0.508 2.805-0.656 2.977C41.68 35.9 39.2 36 36.5 36h-0.001c-4.603 0-8.008-0.282-8.02-0.282 c-0.445-0.058-0.617-0.528-0.661-0.677c-0.426-3.717-0.698-12.697-0.704-12.846c-0.556-6.571 1.962-9.314 1.961-9.314 c2.66-2.561 2.377-5.524 2.363-5.649c-0.006-0.046-0.014-0.093-0.024-0.139c-0.149-0.61-0.183-0.979-0.187-1.171 c0.713-0.67 1.365-0.832 1.383-0.836c0.508-0.106 0.861-0.567 0.834-1.085l-0.104-1.873c0.917-0.017 2.322-0.031 3.672-0.031 c0.784 0 1.3 0 1.7 0.011c-0.021 2 0.9 3.7 1.9 5.22c0.209 0.3 0.2 0.5 0.2 0.6 c-0.652 1.793-0.021 4.2 0.1 4.458c0.016 0.1 0 0.1 0.1 0.168c0.34 0.7 0.8 1.5 1.4 2.3 c1.231 1.9 2.6 4.1 2.7 6.53C45.189 23.8 45 26.2 44.9 28.496z"/>
    	<path id="icon-path2" d="M18.003 10.27c-0.359-0.215-0.737-0.382-1.16-0.51c-1.221-0.365-2.41-0.271-3.58-0.297 c-0.891-0.021-1.812-0.018-2.651-0.007C9.72 9.4 8.8 9.4 7.9 9.462C6.76 9.5 5.6 9.4 4.4 9.8 c-0.418 0.127-0.796 0.293-1.151 0.506c-2.256 1.339-2.774 3.534-2.973 5.296c-0.187 1.657-0.256 3.455-0.218 5.662l0.008 0.7 l0.229 0.284c0.244 0.3 0.6 0.8 0.9 1.388c0.016 0 0 0.1 0 0.109c0 0-0.599 0.966-1.023 1.749l-0.13 0.2 l0.003 0.272c0.034 2.8 0.1 9.3 0.2 10.182c-0.005 0.2 0 0.6 0.4 1.034c0.39 0.5 1 0.7 1.9 0.8 c0.033 0 3.3 0.1 8.1 0.146h0.003c4.835-0.007 8.099-0.145 8.128-0.146c0.857-0.034 1.49-0.291 1.879-0.764 c0.322-0.392 0.371-0.798 0.366-1.034c0.037-0.813 0.105-5.932 0.158-10.183l0.003-0.272l-0.13-0.24 c-0.424-0.782-1.022-1.748-1.034-1.752c-0.001-0.021 0.013-0.074 0.03-0.106c0.342-0.6 0.705-1.085 0.949-1.387l0.229-0.284 l0.008-0.707c0.039-2.205-0.031-4.003-0.218-5.66C20.772 13.8 20.3 11.6 18 10.27z M19.092 21.184l0 0 c-0.267 0.352-0.591 0.815-0.893 1.344c-0.271 0.443-0.572 1.4 0 2.285c0 0 0.5 0.7 0.8 1.4 c-0.063 5.114-0.116 8.657-0.144 9.611c-0.062 0.01-0.143 0.019-0.246 0.022C18.611 35.9 15.4 36 10.6 36 c-4.787-0.007-8.011-0.143-8.046-0.144c-0.102-0.004-0.182-0.013-0.243-0.022c-0.028-0.979-0.083-4.65-0.144-9.611 c0.373-0.667 0.812-1.376 0.811-1.376c0.594-0.888 0.293-1.872 0.039-2.286c-0.314-0.551-0.642-1.021-0.91-1.373v-0.002 c-0.037-2.111 0.028-3.823 0.204-5.387c0.221-1.953 0.788-3.033 1.963-3.73c0.21-0.126 0.434-0.224 0.682-0.299 c0.89-0.266 1.942-0.185 3.03-0.21c0.865-0.021 1.705-0.017 2.625-0.006c0.867-0.011 1.732-0.016 2.6 0 c1.078 0 2.14-0.056 3 0.209c0.252 0.1 0.5 0.2 0.7 0.303c1.171 0.7 1.7 1.8 2 3.7 C19.063 17.4 19.1 19.1 19.1 21.184z"/>
    </g>

</svg>