<svg xmlns="http://www.w3.org/2000/svg" xmlns:xlink="http://www.w3.org/1999/xlink" version="1.1" x="0px" y="0px" width="60px" height="60px" viewBox="0 0 60 60" enable-background="new 0 0 60 60" xml:space="preserve">
<style>
	.style0{
		fill:	#296C7B;
	}
	.style1{
		fill:	#F6838C;
	}
</style><g>
	<g>
		<path d="M42.217 29.154c-0.793 0-0.675 0.911-2.994 0.911c-3.562 0-3.668-2.544-4.52-2.544 c-0.509 0-4.556-0.71-4.556-6.732s4.484-6.603 5.372-5.939c0.343 0.2 2.2 0.8 4.094-2.06 c0.758-1.124 0.639-4.98 2.852-5.715c-1.195-0.65-2.449-1.219-3.751-1.691c-0.331-0.118-0.662-0.225-1.006-0.332 c-0.343-0.105-0.697-0.2-1.041-0.295c-2.07-0.533-4.247-0.816-6.508-0.816C15.76 3.9 4.1 15.6 4.1 30 c0 2.2 0.3 4.4 0.8 6.508c0.106 0.4 0.2 0.8 0.3 1.219c0.119 0.4 0.3 0.8 0.4 1.2 c0 0 0 0 0 0.048c1.479 4 3.9 7.6 7.1 10.447c-0.367-2.082-0.154-4.697-0.154-5.171 c0-1.774 7.68-3.218 17.145-3.218c9.466 0 17.1 1.4 17.1 3.218c0.06 2.4 0.4 4.296-0.106 5.8 c4.461-3.716 7.667-8.898 8.874-14.802L42.217 29.154z" class="style0"/>
	</g>
	<g>
		<path d="M29.781 42.737c-7.975 0-14.447 1.112-14.447 2.484c0 1.4 6.5 2.5 14.4 2.5 s14.458-1.112 14.458-2.485C44.239 43.9 37.8 42.7 29.8 42.737z" class="style0"/>
	</g>
	<g>
		<path d="M30.006 0C13.429 0 0 13.4 0 29.994C0 46.6 13.4 60 30 60C46.57 60 60 46.6 60 30 C60 13.4 46.6 0 30 0z M36.798 56.841c-2.745 0.899-5.94 0.923-6.105 0.923h-0.296c-0.426 0-1.36-0.023-2.567-0.201 C13.618 56.4 2.4 44.5 2.4 29.971c0-15.299 12.399-27.699 27.71-27.699c15.287 0 27.7 12.4 27.7 27.7 C57.858 43 48.9 53.9 36.8 56.841z" class="style0"/>
	</g>
</g>
<g>
	<path d="M31.225 22.346c0-0.144 0.013-0.286 0.024-0.427C28.777 24.2 25.4 34.2 25.4 40.7 c0 6 0 6.9 0 6.933l1.852 0.06c0 0 1.31-15.543 6.88-21.926c-0.246 0.229-0.535 0.359-0.872 0.4 C32.157 26.1 31.2 23.8 31.2 22.346z" class="style1"/>
	<path d="M34.893 21.413c-0.599-0.13-1.479-0.161-2.8 0.009c-0.263 0.034-0.548 0.222-0.844 0.5 c-0.012 0.141-0.024 0.283-0.024 0.427c0 1.5 0.9 3.8 2 3.757c0.337 0 0.626-0.13 0.872-0.359 c0.067-0.076 0.138-0.146 0.205-0.221c0.433-0.582 0.675-1.597 0.675-3.031C35.012 22.1 35 21.7 34.9 21.413z" class="style1"/>
</g>
</svg>
