<svg width="34.041px" height="34.041px" viewBox="-3 -3 40 40" xmlns="http://www.w3.org/2000/svg" xmlns:xlink="http://www.w3.org/1999/xlink">
   
    <style>
    	.svg-recipes {
    		fill: #faee41;
    	}
        .icon-shadow {
            fill: #999;
        }  	
    </style>

    <use xlink:href="#icon-path1" class="icon-shadow" transform="translate(2, 2)" />
    <use xlink:href="#icon-path2" class="icon-shadow" transform="translate(2, 2)" />

    <g class="svg-recipes">
    	<path id="icon-path1" d="M17.02 0C7.635 0 0 7.6 0 17.021c0 9.4 7.6 17 17 17.02c9.385 0 17.021-7.635 17.021-17.02 C34.041 7.6 26.4 0 17 0z M17.02 32C8.761 32 2 25.3 2 17.021c0-8.261 6.72-14.98 14.979-14.98 c8.26 0 15 6.7 15 14.98C32 25.3 25.3 32 17 32z"/>
    	<path id="icon-path2" d="M17.02 2.939c-7.765 0-14.082 6.317-14.082 14.082S9.255 31.1 17 31.1 c7.764 0 14.083-6.316 14.083-14.081S24.784 2.9 17 2.939z M18.041 5.032c2.554 0.2 4.9 1.2 6.7 2.792l-6.734 6.7 V5.032z M16 14.557L9.266 7.824C11.119 6.3 13.4 5.2 16 5.032V14.557z M14.557 16.001H5.031 c0.216-2.554 1.228-4.881 2.792-6.734L14.557 16.001z M14.556 18.042l-6.733 6.733c-1.564-1.853-2.576-4.18-2.792-6.733H14.556z M16 19.485v9.524c-2.553-0.216-4.881-1.228-6.733-2.791L16 19.485z M18.041 19.485l6.734 6.7 c-1.853 1.563-4.18 2.575-6.734 2.791V19.485z M19.484 18.042h9.524c-0.215 2.554-1.227 4.881-2.791 6.733L19.484 18.042z M19.483 16.001l6.734-6.734c1.564 1.9 2.6 4.2 2.8 6.734H19.483z"/>
    </g>

</svg>
