<?xml version="1.0" encoding="utf-8"?>
<!-- Generator: Adobe Illustrator 17.1.0, SVG Export Plug-In . SVG Version: 6.00 Build 0)  -->
<!DOCTYPE svg PUBLIC "-//W3C//DTD SVG 1.1//EN" "http://www.w3.org/Graphics/SVG/1.1/DTD/svg11.dtd">
<svg version="1.1" id="ART" xmlns="http://www.w3.org/2000/svg" xmlns:xlink="http://www.w3.org/1999/xlink" x="0px" y="0px"
	 viewBox="0 0 60 60" enable-background="new 0 0 60 60" xml:space="preserve">
<g>
	<g>
		<path fill="#296C7B" d="M30,0.5C13.7,0.5,0.5,13.7,0.5,30c0,16.3,13.2,29.5,29.5,29.5c16.3,0,29.5-13.2,29.5-29.5
			C59.5,13.7,46.3,0.5,30,0.5z M36.7,56.4c-2.7,0.9-5.8,0.9-6,0.9h-0.3c-0.4,0-1.3,0-2.5-0.2c-14-1.2-25-12.9-25-27.2
			c0-15.1,12.2-27.3,27.3-27.3c15,0,27.3,12.2,27.3,27.3C57.4,42.8,48.6,53.5,36.7,56.4z"/>
	</g>
</g>
<g>
	<path fill="#296C7B" d="M37,23.9c-0.2,0-0.4,0.1-0.5,0.3c-0.1,0.2-0.2,0.7-0.2,1.6V34c0,1,0,1.6,0.1,1.9c0.1,0.2,0.3,0.4,0.6,0.4
		c0.3,0,0.5-0.1,0.6-0.4c0.1-0.3,0.1-0.9,0.1-2v-8.1c0-0.8,0-1.3-0.1-1.6C37.5,24,37.3,23.9,37,23.9z"/>
	<path fill="#296C7B" d="M30,4.4C15.9,4.4,4.4,15.9,4.4,30S15.9,55.6,30,55.6c14.1,0,25.6-11.4,25.6-25.6S44.1,4.4,30,4.4z M30,38.9
		h-4l-2.4-8v8h-3.8V21.3h3.8l2.6,7.9v-7.9H30V38.9z M42.3,31.6c0,1.8,0,3-0.1,3.7c-0.1,0.7-0.3,1.4-0.8,2c-0.4,0.6-1,1.1-1.8,1.4
		c-0.7,0.3-1.6,0.5-2.6,0.5c-0.9,0-1.8-0.2-2.5-0.5c-0.7-0.3-1.3-0.8-1.8-1.4c-0.5-0.6-0.7-1.3-0.8-2c-0.1-0.7-0.1-2-0.1-3.8v-3
		c0-1.8,0-3,0.1-3.7c0.1-0.7,0.3-1.4,0.8-2c0.4-0.6,1-1.1,1.8-1.4c0.7-0.3,1.6-0.5,2.6-0.5c0.9,0,1.8,0.2,2.5,0.5
		c0.7,0.3,1.3,0.8,1.8,1.4c0.5,0.6,0.7,1.3,0.8,2c0.1,0.7,0.1,2,0.1,3.8V31.6z"/>
</g>
</svg>
