<svg xmlns="http://www.w3.org/2000/svg" xmlns:xlink="http://www.w3.org/1999/xlink" version="1.1" x="0px" y="0px" width="60px" height="60px" viewBox="0 0 60 60" enable-background="new 0 0 60 60" xml:space="preserve">
<style>
	.style0{
		fill:	#296C7B;
	}
</style><g>
	<path d="M30 0C13.432 0 0 13.4 0 30c0 16.6 13.4 30 30 30c16.57 0 30-13.428 30-30 C60 13.4 46.6 0 30 0z M30 57.708C14.702 57.7 2.3 45.3 2.3 30C2.294 14.7 14.7 2.3 30 2.3 c15.301 0 27.7 12.4 27.7 27.704C57.708 45.3 45.3 57.7 30 57.708z" class="style0"/>
	<path d="M30 3.961C15.642 4 4 15.6 4 30c0 9.7 5.3 18.1 13.2 22.6 c-2.444-2.556-4.962-6.658-4.962-11.326c0-7.647 7.061-12.941 7.061-19.194c0-6.257-2.484-7.635-2.484-9.282 c0-0.684 1.164-0.868 1.715-0.792c3.171 0 9.8 5 20.7 4.368c1.179 0 1.5 0.8 1.3 1.3 c-0.626 0.624-1.9 2.92-1.263 2.92c1.747 0 2.021-1.53 5.116-1.53c2.708-0.069 6.8 3.8 6.8 9 c0 9.175-6.119 10.981-6.119 10.981c0 3.687-0.65 10.347-2.667 13.843C50.495 48.5 56 39.9 56 30 C56.037 15.6 44.4 4 30 3.961z" class="style0"/>
	<path d="M49.137 28.079c0-3.892-2.378-6.552-4.494-6.552c-2.325 0-4.436 2.599-4.436 5.1 c0 1.8 3.3 8.3 3.9 9.001C47.9 34.9 49.1 32 49.1 28.079z" class="style0"/>
</g>
</svg>
