<svg xmlns="http://www.w3.org/2000/svg" xmlns:xlink="http://www.w3.org/1999/xlink" version="1.1" x="0px" y="0px" width="85.224px" height="102.01px" viewBox="0 0 85.224 102.01" enable-background="new 0 0 85.224 102.01" xml:space="preserve">
<style>
	.style0{
		stroke-linejoin:	round;
		clip-path:	url(#SVGID_2_);
		stroke:	#FFFFFF;
		stroke-linecap:	round;
		stroke-miterlimit:	10;
		stroke-width:	2.5;
		fill:	none;
	}
	.style1{
		fill:	none;
		stroke:	#FFFFFF;
		stroke-width:	2.5;
		stroke-miterlimit:	10;
		clip-path:	url(#SVGID_2_);
	}
	.style2{
		stroke-linejoin:	round;
		clip-path:	url(#SVGID_2_);
		stroke:	#FFFFFF;
		stroke-miterlimit:	10;
		stroke-width:	2.5;
		fill:	none;
	}
	.style3{
		clip-path:	url(#SVGID_2_);
		fill:	#FFFFFF;
	}
</style><g>
	<defs>
		<rect width="85.2" height="102"/>
	</defs>
	<clipPath>
		<use xlink:href="#SVGID_1_" overflow="visible"/>
	</clipPath>
	
		<path d=" M21.857 76.972c-0.073-0.244-3.407-0.952-3.729-1.066c-2.913-1.029-5.725-2.447-8.197-4.31C2.783 66.21-0.76 56.4 2.4 47.8 c4.883-13.149 18.831-13.88 30.092-9.155" class="style0"/>
	<path d="M22.07 68.9 c-0.126 0.602-7.258-3.651-7.814-4.12c-2.236-1.878-4.066-4.032-4.746-6.916c-1.185-5.022 0.717-11.181 5.519-13.626 c5.901-3.007 13.218-0.27 17.6 4.5" class="style1"/>
	<path d="M29.417 52.1 c0 0 8.163-3.121 18.8 2.787c0 0 8.2 3.8 15.277-0.997c0 0 5.673-4.142 11.487-0.799" class="style1"/>
	
		<path d=" M30.469 28.579c0 0 3.6 7.8 2.2 20.232c0 0-14.18 11.616-9.864 31.05c0 0 3.9 13.7 15.1 19.871c0 0 9.1 2.3 29.9 0 c0 0 21.941-13.814 14.731-36.384c0 0-0.74-2.998-7.539-10.253c0 0-10.896-10.748 6.532-27.193c0 0-10.066-9.179-21.951-0.376 C59.562 25.5 50.1 33.3 30.5 28.579z" class="style2"/>
	<path d="M46.398 3.75c0.362 0 0.9 0.1 1.1 0.9 c0.193 0.8 0.3 1.6 0.4 2.404l4.333 48.129c0.061 0.6 0.3 1.3 0.6 1.887c0.014 0 0 0.1 0 0.1 l0.058 0.099c0.541 0.9 1.1 1.9 1.6 2.836c0.714 1.2 1.5 2.4 2.1 3.714c2.167 4 3.1 7.5 3 11.1 c-0.088 2.841-0.757 5.112-1.987 6.752c-1.117 1.325-2.601 2.143-4.183 2.307l-0.034 0.003c-0.153 0.013-0.307 0.019-0.46 0 c-1.442 0-2.84-0.521-4.045-1.506c-1.523-1.399-2.603-3.515-3.208-6.292c-0.765-3.475-0.471-7.118 0.92-11.46 c0.449-1.387 0.947-2.741 1.43-4.054c0.359-0.981 0.705-1.975 1.053-2.975l0.106-0.308c0.198-0.615 0.274-1.312 0.214-1.967 L44.899 7.303c-0.07-0.773-0.087-1.594-0.051-2.407c0.049-0.839 0.51-1.037 0.896-1.092c0.094-0.003 0.178-0.009 0.257-0.017 c0.087-0.006 0.174-0.017 0.26-0.032C46.308 3.8 46.4 3.8 46.4 3.8 M46.398 1.25c-0.111 0-0.227 0.005-0.342 0 c-0.055 0.002-0.137 0.01-0.225 0.028c-0.053 0.001-0.1 0.013-0.173 0.013c-0.016 0-0.031 0-0.05-0.002 c-1.865 0.174-3.145 1.525-3.256 3.448c-0.044 0.964-0.024 1.9 0.1 2.78l4.557 48.096c0.029 0.311-0.012 0.676-0.104 1 l-0.09 0.263c-0.341 0.979-0.681 1.958-1.037 2.929c-0.495 1.349-1.002 2.73-1.46 4.143c-1.533 4.789-1.847 8.846-0.983 12.8 c0.723 3.3 2.1 5.9 4 7.645c1.66 1.4 3.7 2.1 5.7 2.116c0.22 0 0.438-0.009 0.656-0.026l0.062-0.005 c2.265-0.225 4.36-1.369 5.915-3.24c1.573-2.066 2.425-4.837 2.528-8.231c0.129-4.017-0.922-7.948-3.308-12.372 c-0.707-1.302-1.459-2.57-2.193-3.805c-0.548-0.923-1.081-1.858-1.615-2.796l-0.07-0.122c-0.149-0.276-0.255-0.628-0.284-0.937 L50.346 6.796c-0.082-0.884-0.235-1.807-0.455-2.748C49.464 2.3 48.1 1.2 46.4 1.2" class="style3"/>
</g>
</svg>
