<svg xmlns="http://www.w3.org/2000/svg" xmlns:xlink="http://www.w3.org/1999/xlink" version="1.1" x="0px" y="0px" width="60px" height="60px" viewBox="0 0 60 60" enable-background="new 0 0 60 60" xml:space="preserve">
<style>
	.style0{
		fill:	#296C7B;
	}
</style><g>
	<path d="M30.142 42.284c-8.055 0-14.599 1.108-14.599 2.501c0 1.4 6.5 2.5 14.6 2.5 c8.067 0 14.598-1.12 14.598-2.5C44.74 43.4 38.2 42.3 30.1 42.284z" class="style0"/>
	<path d="M30.059 3.893c-14.374 0-26.02 11.63-26.02 25.972c0 7.8 3.5 14.9 9 19.6 c-0.496-2.146-0.248-5.178-0.248-5.697c0-1.793 7.76-3.243 17.315-3.243c9.567 0 17.3 1.4 17.3 3.2 c0.059 2.2 0.3 4 0 5.402c5.303-4.754 8.646-11.653 8.646-19.344C56.067 15.5 44.4 3.9 30.1 3.893z M30.473 36.316c-2.22 0-5.61-1.486-5.61-5.614c0-4.117 5.256-10.615 5.256-10.615s5.516 5.9 5.5 10.7 C35.634 34.6 32.5 36.3 30.5 36.316z" class="style0"/>
	<path d="M30.059 0C18.65 0 8.7 6.4 3.7 15.746C1.335 20 0 24.9 0 30.101C0 46.6 13.4 60 30 60 c11.397 0 21.307-6.357 26.362-15.711C58.666 40 60 35.1 60 29.899C60 13.4 46.6 0 30.1 0z M54.177 43.4 c-3.696 6.559-9.992 11.453-17.492 13.293c-2.74 0.896-5.929 0.92-6.083 0.92h-0.307c-0.425 0-1.358-0.023-2.563-0.2 C13.547 56.2 2.4 44.4 2.4 29.899c0-4.706 1.181-9.141 3.271-13.021c4.689-8.574 13.807-14.39 24.284-14.39 c15.26 0 27.6 12.4 27.6 27.612C57.603 34.9 56.4 39.5 54.2 43.393z" class="style0"/>
</g>
</svg>
